<svg width="20" height="20" viewBox="0 0 20 20" fill="none" xmlns="http://www.w3.org/2000/svg">
<mask id="mask0" mask-type="alpha" maskUnits="userSpaceOnUse" x="0" y="0" width="20" height="20">
<path d="M8.5 0C13.1944 0 17 3.80558 17 8.5C17 10.4865 16.3185 12.3139 15.1766 13.7611L19.7071 18.2929C20.0976 18.6834 20.0976 19.3166 19.7071 19.7071C19.3166 20.0976 18.6834 20.0976 18.2929 19.7071L13.7611 15.1766C12.3139 16.3185 10.4865 17 8.5 17C3.80558 17 0 13.1944 0 8.5C0 3.80558 3.80558 0 8.5 0ZM8.5 2C4.91015 2 2 4.91015 2 8.5C2 12.0899 4.91015 15 8.5 15C10.2704 15 11.8755 14.2922 13.0478 13.1441L13.0929 13.0929C13.109 13.0768 13.1256 13.0613 13.1425 13.0465C14.2922 11.8755 15 10.2704 15 8.5C15 4.91015 12.0899 2 8.5 2Z" fill="white"/>
</mask>
<g mask="url(#mask0)">
<path d="M8.5 0C13.1944 0 17 3.80558 17 8.5C17 10.4865 16.3185 12.3139 15.1766 13.7611L19.7071 18.2929C20.0976 18.6834 20.0976 19.3166 19.7071 19.7071C19.3166 20.0976 18.6834 20.0976 18.2929 19.7071L13.7611 15.1766C12.3139 16.3185 10.4865 17 8.5 17C3.80558 17 0 13.1944 0 8.5C0 3.80558 3.80558 0 8.5 0ZM8.5 2C4.91015 2 2 4.91015 2 8.5C2 12.0899 4.91015 15 8.5 15C10.2704 15 11.8755 14.2922 13.0478 13.1441L13.0929 13.0929C13.109 13.0768 13.1256 13.0613 13.1425 13.0465C14.2922 11.8755 15 10.2704 15 8.5C15 4.91015 12.0899 2 8.5 2Z" fill="white"/>
</g>
</svg>
